<svg width="24" height="24" viewBox="0 0 24 24" xmlns="http://www.w3.org/2000/svg">
  <path d="M18.355 9.239c.01.142.01.284.01.426 0 4.335-3.299 9.33-9.33 9.33A9.267 9.267 0 0 1 4 17.523c.264.03.518.04.792.04a6.568 6.568 0 0 0 4.071-1.4 3.285 3.285 0 0 1-3.066-2.275c.203.03.406.051.62.051.294 0 .588-.04.862-.112a3.28 3.28 0 0 1-2.63-3.218v-.04c.437.243.945.395 1.483.416A3.277 3.277 0 0 1 4.67 8.254c0-.61.162-1.168.447-1.655a9.321 9.321 0 0 0 6.761 3.431 3.7 3.7 0 0 1-.081-.75A3.278 3.278 0 0 1 15.077 6c.943 0 1.796.396 2.395 1.036a6.456 6.456 0 0 0 2.081-.792 3.27 3.27 0 0 1-1.441 1.807c.66-.071 1.3-.254 1.888-.508a7.048 7.048 0 0 1-1.645 1.696z"/>
</svg>